<?xml version="1.0" standalone="no"?><!DOCTYPE svg PUBLIC "-//W3C//DTD SVG 1.1//EN" "http://www.w3.org/Graphics/SVG/1.1/DTD/svg11.dtd"><svg t="1505895806262" class="icon" style="" viewBox="0 0 1024 1024" version="1.1" xmlns="http://www.w3.org/2000/svg" p-id="11927" xmlns:xlink="http://www.w3.org/1999/xlink" width="32" height="32"><defs><style type="text/css"></style></defs><path d="M510.7 960c-5.7 0-11.1-2.2-15.1-6.3L70.3 527.2c-8.4-8.4-8.4-22.1 0-30.5L495.5 70.3c4-4 9.4-6.3 15.1-6.3 5.7 0 11.1 2.2 15.1 6.3 8.4 8.4 8.4 22.1 0 30.5L137.2 490.5h801.4c11.8 0 21.4 9.6 21.4 21.5s-9.6 21.5-21.4 21.5H137.2l388.6 389.7c4.1 4.1 6.3 9.5 6.3 15.3 0 5.7-2.2 11.2-6.3 15.2-4.1 4.1-9.4 6.3-15.1 6.3z" p-id="11928" fill="#ffffff"></path></svg>