<?xml version="1.0" standalone="no"?><!DOCTYPE svg PUBLIC "-//W3C//DTD SVG 1.1//EN" "http://www.w3.org/Graphics/SVG/1.1/DTD/svg11.dtd"><svg t="1508169186971" class="icon" style="" viewBox="0 0 1024 1024" version="1.1" xmlns="http://www.w3.org/2000/svg" p-id="3552" xmlns:xlink="http://www.w3.org/1999/xlink" width="32" height="32"><defs><style type="text/css"></style></defs><path d="M891.664507 837.616032 564.837904 510.779196l326.815347-326.792834c16.124236-16.136515 18.388812-39.990806 2.27481-56.103786-16.137539-16.137539-40.023552-13.896498-56.149834 2.229784l-326.803068 326.803068-326.803068-326.803068c-16.147772-16.126282-40.024575-18.3663-56.149834-2.229784-16.114003 16.114003-13.872962 39.968293 2.263553 56.103786l326.815347 326.792834L130.273531 837.616032c-16.125259 16.147772-18.3663 40.014342-2.252297 56.137555 16.125259 16.125259 39.990806 13.873985 56.127322-2.27481l326.82558-326.82558 326.826604 326.82558c16.114003 16.126282 39.989783 18.399045 56.127322 2.27481C910.042063 877.630375 907.79079 853.741291 891.664507 837.616032z" p-id="3553" fill="#ffffff"></path></svg>