<?xml version="1.0" standalone="no"?><!DOCTYPE svg PUBLIC "-//W3C//DTD SVG 1.1//EN" "http://www.w3.org/Graphics/SVG/1.1/DTD/svg11.dtd"><svg t="1508417680552" class="icon" style="" viewBox="0 0 1024 1024" version="1.1" xmlns="http://www.w3.org/2000/svg" p-id="2412" xmlns:xlink="http://www.w3.org/1999/xlink" width="32" height="32"><defs><style type="text/css"></style></defs><path d="M503.466667 945.493333c-235.52 0-426.666667-191.146667-426.666667-426.666666s191.146667-426.666667 426.666667-426.666667 426.666667 191.146667 426.666666 426.666667-191.146667 426.666667-426.666666 426.666666z m0-819.2c-216.746667 0-392.533333 175.786667-392.533334 392.533334s175.786667 392.533333 392.533334 392.533333 392.533333-175.786667 392.533333-392.533333-175.786667-392.533333-392.533333-392.533334z" p-id="2413" fill="#dbdbdb"></path><path d="M459.093333 539.306667c-10.24 0-17.066667-6.826667-17.066666-17.066667V279.893333c0-10.24 6.826667-17.066667 17.066666-17.066666s17.066667 6.826667 17.066667 17.066666v242.346667c0 10.24-6.826667 17.066667-17.066667 17.066667z" p-id="2414" fill="#dbdbdb"></path><path d="M634.88 711.68c-3.413333 0-8.533333-1.706667-11.946667-5.12l-175.786666-165.546667c-6.826667-6.826667-6.826667-17.066667 0-23.893333 6.826667-6.826667 17.066667-6.826667 23.893333 0L646.826667 682.666667c6.826667 6.826667 6.826667 17.066667 0 23.893333-1.706667 3.413333-6.826667 5.12-11.946667 5.12z" p-id="2415" fill="#dbdbdb"></path></svg>