<?xml version="1.0" standalone="no"?><!DOCTYPE svg PUBLIC "-//W3C//DTD SVG 1.1//EN" "http://www.w3.org/Graphics/SVG/1.1/DTD/svg11.dtd"><svg t="1505990570303" class="icon" style="" viewBox="0 0 1024 1024" version="1.1" xmlns="http://www.w3.org/2000/svg" p-id="4644" xmlns:xlink="http://www.w3.org/1999/xlink" width="32" height="32"><defs><style type="text/css"></style></defs><path d="M900.90125 576.9903125v80.469375c0 99.0309375-80.469375 160.9115625-181.5515625 160.9115625h-414.6871875c-99.0309375 0-181.5515625-59.833125-181.5515625-160.9115625v-160.9115625c0-99.0309375 80.469375-160.9115625 181.5515625-160.9115625h447.6909375l-107.2790625 107.2790625 39.20625 39.20625 177.4284375-177.4284375-177.4284375-177.4284375-39.20625 39.20625 111.399375 111.399375h-482.7646875c-113.469375 0-206.30625 92.8415625-206.30625 206.30625v185.6821875c0 113.469375 92.8415625 206.30625 206.30625 206.30625h474.5165625c113.469375 0 206.30625-92.8415625 206.30625-206.30625v-92.8415625h-53.63625z" fill="#e6e6e6" p-id="4645"></path><path d="M546.040625-82.36708321h-53.63625v-200.1234375c-18.571875 18.571875-41.2678125 30.946875-68.0803125 39.20625v-47.4553125c14.4440625-4.123125 28.8909375-12.3684375 45.388125-24.76125 16.509375-12.3684375 26.8209375-26.8209375 33.0103125-43.321875h43.321875v276.4640625z" fill="#e6e6e6" p-id="4646"></path></svg>