<?xml version="1.0" standalone="no"?><!DOCTYPE svg PUBLIC "-//W3C//DTD SVG 1.1//EN" "http://www.w3.org/Graphics/SVG/1.1/DTD/svg11.dtd"><svg t="1507555365440" class="icon" style="" viewBox="0 0 1024 1024" version="1.1" xmlns="http://www.w3.org/2000/svg" p-id="9086" xmlns:xlink="http://www.w3.org/1999/xlink" width="32" height="32"><defs><style type="text/css"></style></defs><path d="M93.156 46.617v930.765l-71.786-39.094 720.592-465.383v78.188l-720.592-465.383 71.786-39.094zM0.079 46.617c0-36.864 40.82-59.093 71.786-39.094l720.592 465.383c28.387 18.333 28.388 59.855 0 78.188l-720.592 465.383c-30.967 19.998-71.786-2.23-71.786-39.094v-930.765zM926.090 931.226c0 25.493 20.657 46.157 46.538 46.157 25.702 0 46.538-21.189 46.538-46.157v-838.452c0-25.493-20.657-46.157-46.538-46.157-25.702 0-46.538 21.189-46.538 46.157v838.452z" p-id="9087" fill="#ffffff"></path></svg>