<?xml version="1.0" standalone="no"?><!DOCTYPE svg PUBLIC "-//W3C//DTD SVG 1.1//EN" "http://www.w3.org/Graphics/SVG/1.1/DTD/svg11.dtd"><svg t="1508135569511" class="icon" style="" viewBox="0 0 1024 1024" version="1.1" xmlns="http://www.w3.org/2000/svg" p-id="4999" xmlns:xlink="http://www.w3.org/1999/xlink" width="32" height="32"><defs><style type="text/css"></style></defs><path d="M192 863.872c0 17.664 14.336 31.999 32 32s31.999-14.336 32-32v-282.879l553.409 308.416c18.176 10.112 39.936 10.048 58.111 0 18.24-10.176 29.056-28.288 29.056-48.576v-656.641c0-20.225-10.816-38.464-29.056-48.576-9.088-5.056-19.008-7.616-28.992-7.616s-19.968 2.56-29.056 7.616l-553.472 308.416v-284.096c0-17.664-14.336-31.999-32-32s-31.999 14.336-32 32v703.936zM832.192 194.752l3.136 637.248-573.312-319.488 570.176-317.76z" p-id="5000" fill="#ffffff"></path></svg>