<?xml version="1.0" standalone="no"?><!DOCTYPE svg PUBLIC "-//W3C//DTD SVG 1.1//EN" "http://www.w3.org/Graphics/SVG/1.1/DTD/svg11.dtd"><svg t="1507555345944" class="icon" style="" viewBox="0 0 1024 1024" version="1.1" xmlns="http://www.w3.org/2000/svg" p-id="8866" xmlns:xlink="http://www.w3.org/1999/xlink" width="32" height="32"><defs><style type="text/css"></style></defs><path d="M930.84436 977.382623 930.84436 46.617377 1002.630813 85.71135 282.038367 551.093974 282.038367 472.906026 1002.630813 938.288649 930.84436 977.382623 930.84436 977.382623ZM1023.920885 977.382623C1023.920885 1014.246227 983.101312 1036.476038 952.134432 1016.476597L231.541984 551.093974C203.155221 532.760854 203.155221 491.239146 231.541984 472.906026L952.134432 7.523404C983.101312-12.476039 1023.920885 9.753771 1023.920885 46.617377L1023.920885 977.382623ZM97.909546 92.774171C97.909546 67.282478 77.25285 46.617377 51.371284 46.617377 25.668914 46.617377 4.833022 67.806508 4.833022 92.774171L4.833022 931.22583C4.833022 956.717521 25.489723 977.382623 51.371284 977.382623 77.073659 977.382623 97.909546 956.193491 97.909546 931.22583L97.909546 92.774171Z" p-id="8867" fill="#ffffff"></path></svg>