<?xml version="1.0" standalone="no"?><!DOCTYPE svg PUBLIC "-//W3C//DTD SVG 1.1//EN" "http://www.w3.org/Graphics/SVG/1.1/DTD/svg11.dtd"><svg t="1505895612961" class="icon" style="" viewBox="0 0 1024 1024" version="1.1" xmlns="http://www.w3.org/2000/svg" p-id="11163" xmlns:xlink="http://www.w3.org/1999/xlink" width="32" height="32"><defs><style type="text/css"></style></defs><path d="M959.7 830c0-136.1-78.2-252.5-188.7-300 53.5-38.6 88.8-104.3 88.8-179 0-101.9-65.7-187.2-154-209.4-0.8-0.2-1.6-0.1-2.3 0.2-1-0.1-2-0.3-3-0.3-18.9 0-34.1 16.5-34.1 36.8 0 18.4 12.5 33.5 28.8 36.2 2.9 1.3 6.7 2.2 6.9 2.3C753.2 235.5 790 287.6 790 349c0 68.5-45.8 125.4-106.1 137.3-0.1 0-0.2 0.2-0.2 0.2-20.1 1.4-36 19.2-36 41.2 0 22.3 16.4 40.4 36.9 41.3 0.1 0.1 0.3 0.3 0.4 0.3 121.2 13.5 207.2 125 207.2 260.7 0 20.1 15.1 36.4 33.7 36.4 18.2 0 32.9-15.5 33.6-34.9 0-0.2 0.1-0.3 0.1-0.5v-0.2c0.1-0.3 0.1-0.5 0.1-0.8zM555.5 536.1c63.9-46.2 106-124.8 106-214 0-142.2-106.9-257.5-238.7-257.5-131.8 0-238.7 115.3-238.7 257.5 0 89.2 42.1 167.8 106 214C158 593 64.6 732.2 64.6 895c0 9.2 0.5 18.2 1.1 27.2h0.1C65.7 942 80.6 958 99 958c18.4 0 33.3-16.1 33.3-35.9 0-1.1-0.2-2.2-0.3-3.3-0.6-7.9-1.2-15.8-1.2-23.9 0-173.9 130.8-315 292.1-315s292.1 141 292.1 315c0 8.4-0.5 16.6-1.2 24.8 0 0.4-0.1 0.8-0.1 1.2v1.1h0.1c0.5 19.3 15.1 34.8 33.2 34.8 18 0 32.6-15.5 33.2-34.8h0.1c0.6-9 1.1-18 1.1-27.2-0.3-162.6-93.7-301.8-225.9-358.7zM422.8 507c-94.7 0-171.5-82.8-171.5-184.9 0-102.1 76.8-184.9 171.5-184.9S594.3 220 594.3 322.1c0 102.1-76.7 184.9-171.5 184.9z" fill="#e6e6e6" p-id="11164"></path></svg>