<?xml version="1.0" standalone="no"?><!DOCTYPE svg PUBLIC "-//W3C//DTD SVG 1.1//EN" "http://www.w3.org/Graphics/SVG/1.1/DTD/svg11.dtd"><svg t="1508169093665" class="icon" style="" viewBox="0 0 1024 1024" version="1.1" xmlns="http://www.w3.org/2000/svg" p-id="2226" xmlns:xlink="http://www.w3.org/1999/xlink" width="32" height="32"><defs><style type="text/css"></style></defs><path d="M729.136128 679.189504 704.14336 704.182272 679.150592 729.17504 904.12032 954.1376 954.10688 904.141824Z" p-id="2227" fill="#bfbfbf"></path><path d="M704.14336 179.270656c-144.951296-144.951296-379.95008-144.951296-524.884992 0C34.307072 324.221952 34.307072 559.229952 179.259392 704.182272c144.933888 144.951296 379.933696 144.951296 524.884992 0C849.09568 559.229952 849.09568 324.221952 704.14336 179.270656zM654.157824 654.18752c-117.33504 117.344256-307.577856 117.344256-424.912896 0-117.353472-117.343232-117.353472-307.576832 0-424.922112 117.33504-117.344256 307.577856-117.344256 424.912896 0C771.492864 346.610688 771.492864 536.844288 654.157824 654.18752z" p-id="2228" fill="#bfbfbf"></path></svg>