<?xml version="1.0" standalone="no"?><!DOCTYPE svg PUBLIC "-//W3C//DTD SVG 1.1//EN" "http://www.w3.org/Graphics/SVG/1.1/DTD/svg11.dtd"><svg t="1505895866394" class="icon" style="" viewBox="0 0 1024 1024" version="1.1" xmlns="http://www.w3.org/2000/svg" p-id="12826" xmlns:xlink="http://www.w3.org/1999/xlink" width="32" height="32"><defs><style type="text/css"></style></defs><path d="M734.343971 959.403796c-83.900875 0-152.156422-68.25657-152.156422-152.160515 0-83.900875 68.25657-152.156422 152.156422-152.156422 83.903945 0 152.160515 68.25657 152.160515 152.156422C886.504486 891.147226 818.247916 959.403796 734.343971 959.403796L734.343971 959.403796zM734.343971 690.889273c-64.159252 0-116.352985 52.199872-116.352985 116.352985 0 64.157205 52.194756 116.357078 116.352985 116.357078 64.157205 0 116.358101-52.199872 116.358101-116.357078C850.702072 743.089146 798.501176 690.889273 734.343971 690.889273L734.343971 690.889273zM734.343971 690.889273" p-id="12827" fill="#ffffff"></path><path d="M286.819424 672.985508c-83.899852 0-152.156422-68.25657-152.156422-152.156422s68.25657-152.156422 152.156422-152.156422c83.903945 0 152.160515 68.25657 152.160515 152.156422S370.72337 672.985508 286.819424 672.985508L286.819424 672.985508zM286.819424 404.476101c-64.154135 0-116.352985 52.195779-116.352985 116.352985s52.199872 116.358101 116.352985 116.358101c64.157205 0 116.358101-52.200896 116.358101-116.358101S350.977653 404.476101 286.819424 404.476101L286.819424 404.476101zM286.819424 404.476101" p-id="12828" fill="#ffffff"></path><path d="M734.343971 368.672664c-83.900875 0-152.156422-68.254523-152.156422-152.160515 0-83.900875 68.25657-152.156422 152.156422-152.156422 83.903945 0 152.160515 68.25657 152.160515 152.156422C886.504486 300.417117 818.247916 368.672664 734.343971 368.672664L734.343971 368.672664zM734.343971 100.158141c-64.159252 0-116.352985 52.199872-116.352985 116.352985 0 64.157205 52.194756 116.358101 116.352985 116.358101 64.157205 0 116.358101-52.200896 116.358101-116.358101C850.702072 152.358013 798.501176 100.158141 734.343971 100.158141L734.343971 100.158141zM734.343971 100.158141" p-id="12829" fill="#ffffff"></path><path d="M396.191414 472.360188l-21.830191-28.371164 232.710063-179.009 21.837354 28.371164L396.191414 472.360188zM396.191414 472.360188" p-id="12830" fill="#ffffff"></path><path d="M414.552597 569.639768l196.924022 161.101141-22.670326 27.706015L391.882272 597.351923 414.552597 569.639768 414.552597 569.639768zM414.552597 569.639768" p-id="12831" fill="#ffffff"></path></svg>