<?xml version="1.0" standalone="no"?><!DOCTYPE svg PUBLIC "-//W3C//DTD SVG 1.1//EN" "http://www.w3.org/Graphics/SVG/1.1/DTD/svg11.dtd"><svg t="1505990817091" class="icon" style="" viewBox="0 0 1041 1024" version="1.1" xmlns="http://www.w3.org/2000/svg" p-id="8494" xmlns:xlink="http://www.w3.org/1999/xlink" width="32.53125" height="32"><defs><style type="text/css"></style></defs><path d="M520.393443 1024C233.337705 1024 0 794.019672 0 512 0 229.980328 233.337705 0 520.393443 0c287.055738 0 520.393443 229.980328 520.393443 512C1040.786885 794.019672 807.44918 1024 520.393443 1024zM520.393443 33.57377C251.803279 33.57377 33.57377 248.445902 33.57377 512S251.803279 990.42623 520.393443 990.42623c268.590164 0 486.819672-214.872131 486.819672-478.42623S788.983607 33.57377 520.393443 33.57377z" p-id="8495" fill="#e6e6e6"></path><path d="M386.098361 268.590164 386.098361 268.590164c18.465574 0 33.57377 15.108197 33.57377 33.57377l0 436.459016c0 18.465574-15.108197 33.57377-33.57377 33.57377l0 0c-18.465574 0-33.57377-15.108197-33.57377-33.57377L352.52459 302.163934C352.52459 283.698361 367.632787 268.590164 386.098361 268.590164z" p-id="8496" fill="#e6e6e6"></path><path d="M637.901639 268.590164 637.901639 268.590164c18.465574 0 33.57377 15.108197 33.57377 33.57377l0 436.459016c0 18.465574-15.108197 33.57377-33.57377 33.57377l0 0c-18.465574 0-33.57377-15.108197-33.57377-33.57377L604.327869 302.163934C604.327869 283.698361 619.436066 268.590164 637.901639 268.590164z" p-id="8497" fill="#e6e6e6"></path></svg>