<?xml version="1.0" standalone="no"?><!DOCTYPE svg PUBLIC "-//W3C//DTD SVG 1.1//EN" "http://www.w3.org/Graphics/SVG/1.1/DTD/svg11.dtd"><svg t="1505990274294" class="icon" style="" viewBox="0 0 1024 1024" version="1.1" xmlns="http://www.w3.org/2000/svg" p-id="2417" xmlns:xlink="http://www.w3.org/1999/xlink" width="32" height="32"><defs><style type="text/css"></style></defs><path d="M732.25 810.781c-8.75 0-15.844-7.125-15.844-15.875 0-4.812 2.469-9.344 6.75-12.5l5.125-5.281c76.844-73.25 119.062-171.219 119.062-276.641 0-98.922-37.844-192.938-106.562-264.75-3.5-3.297-5.281-7.344-5.281-11.641 0-8.625 7.031-15.641 15.656-15.641 5.125 0 9.812 2.703 12.844 7.422l5.219 4.812c70.562 76.859 109.344 176.016 109.344 279.828 0 113.234-45.281 218.797-127.625 297.953C750.938 798.469 737.312 810.781 732.25 810.781zM639.344 694.688c-8.75 0-15.875-7.125-15.875-15.875 0-4.688 2.188-8.969 6.188-12.125l4.594-6.125c34.5-42 53.438-94.531 53.438-148.656 0-55.375-19.688-108.844-55.531-151.266l0.25-0.219-4.5-4.953c-2.844-2.953-4.406-6.797-4.406-10.812 0-8.625 7.031-15.641 15.656-15.641 6.438 0 11.406 3.251 13.218 5.719l4.001 5.718C697 388.625 719.281 449.25 719.281 511.891s-22.25 123.203-62.75 171.297l-4.781 4.938C648.562 692.312 644.031 694.688 639.344 694.688zM464.486 150.277 276.162 329.842 159.289 329.842c-45.762 0-68.268 24.645-68.268 68.268l0 227.555c0 42.916 23.234 68.266 68.268 68.266l116.873 0 188.324 179.564c50.426 47.332 104.402 26.488 104.402-52.109L568.888 202.434C568.889 122.971 513.957 103.924 464.486 150.277zM536.875 821.375c0 23.062-5.562 34.344-8.891 39-3.906 5.469-7.641 6.219-10.781 6.219-8.344 0-19.859-6.156-30.828-16.438L288.969 661.938 159.281 661.938c-26.438 0-36.266-9.844-36.266-36.281L123.015 398.109c0-27.109 9.156-36.266 36.266-36.266l129.688 0 197.594-188.406c10.641-9.969 22.141-16.031 30.562-16.031 13.656 0 19.75 22.625 19.75 45.031L536.875 821.375z" p-id="2418" fill="#e6e6e6"></path></svg>