<?xml version="1.0" standalone="no"?><!DOCTYPE svg PUBLIC "-//W3C//DTD SVG 1.1//EN" "http://www.w3.org/Graphics/SVG/1.1/DTD/svg11.dtd"><svg t="1511506482209" class="icon" style="" viewBox="0 0 1024 1024" version="1.1" xmlns="http://www.w3.org/2000/svg" p-id="23767" xmlns:xlink="http://www.w3.org/1999/xlink" width="16" height="16"><defs><style type="text/css"></style></defs><path d="M864 189.44l-213.312 0c-61.184 0-98.112-29.312-109.248-55.552C518.4 80 477.952 62.912 393.024 62.912L107.328 62.912C29.184 62.912 0 98.368 0 170.752L0 847.36c0 88.64 30.784 113.728 119.04 113.728L864 961.088c88.256 0 160-72.128 160-160.768L1024 350.208C1024 261.568 952.256 189.44 864 189.44L864 189.44 864 189.44zM983.424 800.32c0 53.184-66.496 125.888-119.424 125.888L119.04 926.208c-52.928 0-78.464-25.6-78.464-78.784L40.576 170.752C42.368 126.272 67.264 106.688 107.328 103.68l291.584 0c61.184 0 90.112 11.648 101.312 37.888 22.976 53.888 65.536 88.64 150.528 88.64l219.2 0c52.928 0 113.6 66.816 113.6 120L983.424 800.32 983.424 800.32 983.424 800.32zM694.528 554.496 533.184 554.496 533.184 392c0-18.304-2.944-33.344-20.864-33.344-17.92 0-20.864 15.04-20.864 33.344l0 162.432L329.472 554.432c-18.24 0-33.152 2.944-33.152 20.992 0 17.984 14.912 20.992 33.152 20.992l161.984 0 0 162.432c0 18.304 2.944 33.344 20.864 33.344 17.92 0 20.864-15.04 20.864-33.344L533.184 596.416l161.408 0c18.24 0 33.152-3.008 33.152-20.992C727.744 557.44 712.768 554.496 694.528 554.496L694.528 554.496 694.528 554.496zM937.792 85.12c0 11.904-9.6 21.568-21.44 21.568L615.744 106.688c-11.84 0-21.504-9.664-21.504-21.568l0 0c0-11.904 9.6-21.568 21.504-21.568l300.608 0C928.192 63.552 937.792 73.216 937.792 85.12L937.792 85.12 937.792 85.12z" p-id="23768" fill="#ffffff"></path></svg>