<?xml version="1.0" standalone="no"?><!DOCTYPE svg PUBLIC "-//W3C//DTD SVG 1.1//EN" "http://www.w3.org/Graphics/SVG/1.1/DTD/svg11.dtd"><svg t="1511506655346" class="icon" style="" viewBox="0 0 1024 1024" version="1.1" xmlns="http://www.w3.org/2000/svg" p-id="31975" xmlns:xlink="http://www.w3.org/1999/xlink" width="16" height="16"><defs><style type="text/css"></style></defs><path d="M297.737364 1024c-3.546935 0-6.916522-0.709387-10.28611-2.128161-9.399377-4.078975-15.429165-13.301005-15.429165-23.409768l0-134.428819-172.735712 0c-53.381365 0-98.60478-45.223415-98.60478-98.60478l0-666.823692c0-54.268098 44.159335-98.60478 98.60478-98.60478l826.79044 0c26.069969 0 51.785244 10.81815 70.051957 29.971597 18.266713 18.9761 28.020783 43.627295 27.134049 69.519917l0 666.114306c0 53.381365-45.223415 98.60478-98.60478 98.60478L480.581839 864.210599l-165.464496 153.227572C310.328982 1021.694493 304.121846 1024 297.737364 1024zM99.463723 51.253204c-26.069969 0-47.351576 21.281607-47.351576 47.351576l0 666.823692c0 25.715275 21.636301 47.351576 47.351576 47.351576l198.450987 0c14.187738 0 25.537929 11.527537 25.537929 25.537929l0 101.442328 129.817804-120.241081c4.788362-4.433668 10.995497-6.739176 17.379979-6.739176l454.362314 0c25.715275 0 47.351576-21.636301 47.351576-47.351576l0-666.823692c0.354693-12.768964-4.078975-24.119155-12.768964-32.986491-8.867336-9.044683-20.926914-14.365085-33.341185-14.365085L99.463723 51.253204z" p-id="31976" fill="#ffffff"></path><path d="M784.199435 352.033253l-542.680984 0c-14.187738 0-25.537929-11.527537-25.537929-25.537929s11.527537-25.537929 25.537929-25.537929l542.680984 0c14.187738 0 25.537929 11.527537 25.537929 25.537929S798.387173 352.033253 784.199435 352.033253z" p-id="31977" fill="#ffffff"></path><path d="M784.199435 563.253204l-542.680984 0c-14.187738 0-25.537929-11.527537-25.537929-25.537929s11.527537-25.537929 25.537929-25.537929l542.680984 0c14.187738 0 25.537929 11.527537 25.537929 25.537929S798.387173 563.253204 784.199435 563.253204z" p-id="31978" fill="#ffffff"></path></svg>