<?xml version="1.0" standalone="no"?><!DOCTYPE svg PUBLIC "-//W3C//DTD SVG 1.1//EN" "http://www.w3.org/Graphics/SVG/1.1/DTD/svg11.dtd"><svg t="1511506871016" class="icon" style="" viewBox="0 0 1024 1024" version="1.1" xmlns="http://www.w3.org/2000/svg" p-id="43407" xmlns:xlink="http://www.w3.org/1999/xlink" width="16" height="16"><defs><style type="text/css"></style></defs><path d="M787 457H677V127H347v330H237l275 275 275-275z m-385 55V182h220v330h32.2L512 654.2 369.8 512H402z" p-id="43408" fill="#ffffff"></path><path d="M832.7 677H787v110c0 30.3-24.7 55-55 55H292c-30.3 0-55-24.7-55-55V677h-55v110c0 60.5 49.5 110 110 110h440c60.5 0 110-49.5 110-110V686.3c0-5.1-4.2-9.3-9.3-9.3z" p-id="43409" fill="#ffffff"></path></svg>