<?xml version="1.0" standalone="no"?><!DOCTYPE svg PUBLIC "-//W3C//DTD SVG 1.1//EN" "http://www.w3.org/Graphics/SVG/1.1/DTD/svg11.dtd"><svg t="1510117922714" class="icon" style="" viewBox="0 0 1024 1024" version="1.1" xmlns="http://www.w3.org/2000/svg" p-id="6229" xmlns:xlink="http://www.w3.org/1999/xlink" width="16" height="16"><defs><style type="text/css"></style></defs><path d="M938.47961 85.256927H801.981411V34.09111A34.115293 34.115293 0 0 0 767.824816 0.000028c-18.825079 0.007121-34.08396 15.266002-34.091081 34.091082v51.165817H290.076846V34.09111A34.120989 34.120989 0 0 0 255.915979 0.000028c-18.82223 0.009969-34.081112 15.267427-34.091081 34.091082v51.165817H85.328123C38.179974 85.256927 0.000014 123.513794 0.000014 170.585036v767.824802c0 47.146725 38.185657 85.332381 85.328109 85.332382h853.152911c47.139604 0 85.32526-38.185657 85.325261-85.332382V170.585036c0-47.069818-38.185657-85.328109-85.326685-85.328109zM102.407132 153.580085h119.41919v51.165818c0.008545 18.823655 15.267427 34.081112 34.089657 34.091081a34.129535 34.129535 0 0 0 34.160867-34.091081v-51.165818H733.733735v51.165818c0.007121 18.825079 15.267427 34.08396 34.091081 34.091081a34.118141 34.118141 0 0 0 34.15517-34.091081v-51.165818h119.426311a34.116717 34.116717 0 0 1 34.153746 34.091082v102.407118H68.251962v-102.412815a34.113868 34.113868 0 0 1 34.15517-34.085385z m818.999165 801.905914H102.407132a34.116717 34.116717 0 0 1-34.15517-34.092505V358.324536h887.308081v563.074655a34.119565 34.119565 0 0 1-34.153746 34.086808z" fill="#f44336" p-id="6230"></path></svg>