<?xml version="1.0" standalone="no"?><!DOCTYPE svg PUBLIC "-//W3C//DTD SVG 1.1//EN" "http://www.w3.org/Graphics/SVG/1.1/DTD/svg11.dtd"><svg t="1510064851210" class="icon" style="" viewBox="0 0 1024 1024" version="1.1" xmlns="http://www.w3.org/2000/svg" p-id="3591" xmlns:xlink="http://www.w3.org/1999/xlink" width="16" height="16"><defs><style type="text/css"></style></defs><path d="M896 256h-67.2L491.2 67.2c-14.4-8-33.6-3.2-43.2 12.8-9.6 14.4-3.2 33.6 11.2 41.6L702.4 256H128C57.6 256 0 313.6 0 384v448c0 70.4 57.6 128 128 128h768c70.4 0 128-57.6 128-128V384c0-70.4-57.6-128-128-128z m64 576c0 35.2-28.8 64-64 64H128c-35.2 0-64-28.8-64-64V384c0-35.2 28.8-64 64-64h768c35.2 0 64 28.8 64 64v448z" fill="#f44336" p-id="3592"></path><path d="M672 416c-105.6 0-192 86.4-192 192s86.4 192 192 192 192-86.4 192-192-86.4-192-192-192z m0 320c-70.4 0-128-57.6-128-128s57.6-128 128-128 128 57.6 128 128-57.6 128-128 128zM352 704H160c-17.6 0-32 14.4-32 32s14.4 32 32 32h192c17.6 0 32-14.4 32-32s-14.4-32-32-32zM352 576H160c-17.6 0-32 14.4-32 32s14.4 32 32 32h192c17.6 0 32-14.4 32-32s-14.4-32-32-32zM352 448H160c-17.6 0-32 14.4-32 32s14.4 32 32 32h192c17.6 0 32-14.4 32-32s-14.4-32-32-32z" fill="#f44336" p-id="3593"></path></svg>