<?xml version="1.0" standalone="no"?><!DOCTYPE svg PUBLIC "-//W3C//DTD SVG 1.1//EN" "http://www.w3.org/Graphics/SVG/1.1/DTD/svg11.dtd"><svg t="1510065459587" class="icon" style="" viewBox="0 0 1024 1024" version="1.1" xmlns="http://www.w3.org/2000/svg" p-id="10811" xmlns:xlink="http://www.w3.org/1999/xlink" width="16" height="16"><defs><style type="text/css"></style></defs><path d="M128.678708 866.174462l768.688173 0 0 29.006637-768.688173 0 0-29.006637ZM127.560234 498.576269l29.006637 0 0 395.588687-29.006637 0 0-395.588687ZM330.871733 498.576269l29.006637 0 0 395.588687-29.006637 0 0-395.588687ZM359.738178 513.079588 127.680984 513.079588l0-16.505929c0 0 0.278339-12.500709 19.495006-12.500709 15.451924 0 145.57247 0 195.143469 0 17.486256-0.112564 17.418718 13.730723 17.418718 13.730723L359.738178 513.079588zM665.090701 334.837044l29.006637 0 0 559.327912-29.006637 0 0-559.327912ZM868.401176 334.837044l29.006637 0 0 559.327912-29.006637 0 0-559.327912ZM897.267621 349.340363 665.210427 349.340363l0-16.505929c0 0 0.278339-12.500709 19.495006-12.500709 15.451924 0 145.57247 0 195.143469 0 17.486256-0.112564 17.418718 13.730723 17.418718 13.730723L897.267621 349.340363zM395.019729 143.512554l29.006637 0 0 750.805898-29.006637 0 0-750.805898ZM601.401146 143.512554l25.936719 0 0 750.805898-25.936719 0 0-750.805898ZM627.196649 158.015873 395.140479 158.015873l0-16.505929c0 0 0.278339-12.500709 19.495006-12.500709 15.451924 0 145.57247 0 195.143469 0 17.486256-0.112564 17.418718 13.730723 17.418718 13.730723L627.197672 158.015873z" p-id="10812" fill="#f44336"></path></svg>